<?xml version="1.0" standalone="no"?><!DOCTYPE svg PUBLIC "-//W3C//DTD SVG 1.1//EN" "http://www.w3.org/Graphics/SVG/1.1/DTD/svg11.dtd"><svg t="1753069999898" class="icon" viewBox="0 0 1024 1024" version="1.1" xmlns="http://www.w3.org/2000/svg" p-id="11356" xmlns:xlink="http://www.w3.org/1999/xlink" width="200" height="200"><path d="M709.234153 804.430047v219.569953l-210.441112-112.173832-210.304605 112.173832v-218.921549l16.346597 2.218223a15.698194 15.698194 0 0 1 9.197094 4.658268l40.781177 42.299807a15.749383 15.749383 0 0 0 14.111311 4.555889l58.032127-10.408585a15.800573 15.800573 0 0 1 10.203826 1.603946l51.940545 27.710724a15.73232 15.73232 0 0 0 14.827968 0l51.940545-27.710724a15.698194 15.698194 0 0 1 10.203826-1.603946l58.032127 10.408585a15.766447 15.766447 0 0 0 14.111311-4.555889l40.781177-42.299807a15.749383 15.749383 0 0 1 9.197094-4.658268l21.038992-2.866627z" fill="#B29F74" p-id="11357"></path><path d="M503.946144 2.064654l51.940545 27.710724a15.698194 15.698194 0 0 0 10.203826 1.603946l58.032127-10.408585a15.766447 15.766447 0 0 1 14.111311 4.555889l40.781177 42.299807a15.749383 15.749383 0 0 0 9.197094 4.658268l58.424582 7.91735c5.204292 0.716657 9.726055 3.958675 12.012531 8.668133l25.629007 52.742518a15.595814 15.595814 0 0 0 7.303073 7.251883l53.100847 25.458375c4.743585 2.269413 8.019729 6.757049 8.719322 11.927215l7.985603 58.032127a15.493435 15.493435 0 0 0 4.675332 9.145904l42.572819 40.508165a15.510498 15.510498 0 0 1 4.590015 14.025995l-10.493901 57.639672a15.493435 15.493435 0 0 0 1.621009 10.135572l27.881357 51.599281a15.476371 15.476371 0 0 1 0 14.742651l-27.881357 51.59928a15.493435 15.493435 0 0 0-1.621009 10.135573l10.493901 57.622609a15.510498 15.510498 0 0 1-4.590015 14.025995l-42.572819 40.508165a15.408118 15.408118 0 0 0-4.675332 9.145904l-7.985603 58.032127a15.561688 15.561688 0 0 1-8.719322 11.927214l-53.100847 25.458375a15.595814 15.595814 0 0 0-7.303073 7.251883l-25.629007 52.742518a15.664067 15.664067 0 0 1-12.012531 8.668134l-58.424582 7.917349a15.698194 15.698194 0 0 0-9.197094 4.658269l-40.781177 42.299806a15.766447 15.766447 0 0 1-14.111311 4.555889l-58.032127-10.408585a15.800573 15.800573 0 0 0-10.203826 1.603946l-51.940545 27.710725a15.73232 15.73232 0 0 1-14.827968 0l-51.940545-27.710725a15.698194 15.698194 0 0 0-10.203826-1.603946l-58.032127 10.408585a15.766447 15.766447 0 0 1-14.111311-4.555889L314.04919 801.972939a15.749383 15.749383 0 0 0-9.197094-4.658269l-58.424582-7.917349a15.698194 15.698194 0 0 1-11.995467-8.668134l-25.646071-52.742518a15.647004 15.647004 0 0 0-7.286009-7.251883L148.382057 695.293475a15.629941 15.629941 0 0 1-8.719323-11.927215l-7.96854-58.032127a15.595814 15.595814 0 0 0-4.675331-9.145904l-42.572819-40.508165a15.510498 15.510498 0 0 1-4.590015-14.025995l10.476838-57.622609a15.578751 15.578751 0 0 0-1.603946-10.135573L60.796374 442.279544a15.561688 15.561688 0 0 1 0-14.742651l27.89842-51.599281a15.595814 15.595814 0 0 0 1.603946-10.135572l-10.459774-57.639672a15.510498 15.510498 0 0 1 4.590015-14.025995l42.572819-40.508165a15.493435 15.493435 0 0 0 4.675331-9.145904l7.96854-58.032127a15.629941 15.629941 0 0 1 8.719323-11.927215l53.100846-25.458375a15.493435 15.493435 0 0 0 7.28601-7.251883l25.64607-52.742518a15.629941 15.629941 0 0 1 11.995468-8.668133l58.424582-7.91735a15.698194 15.698194 0 0 0 9.197094-4.658268l40.781177-42.299807a15.749383 15.749383 0 0 1 14.111311-4.555889l58.032127 10.408585a15.800573 15.800573 0 0 0 10.203826-1.603946L489.08405 2.064654a15.800573 15.800573 0 0 1 14.862094 0" fill="#B29F74" p-id="11358"></path><path d="M612.348997 318.45151v23.820302h46.224355a3.412651 3.412651 0 0 1 3.412651 3.395588v14.759715a3.412651 3.412651 0 0 1-3.412651 3.395587h-46.224355v24.861161h72.928348c1.876958 0 3.395588 1.51863 3.395587 3.395588v15.391055c0 1.876958-1.51863 3.395588-3.395587 3.395587h-170.478971a3.412651 3.412651 0 0 1-3.412651-3.395587v-15.391055a3.412651 3.412651 0 0 1 3.412651-3.395588h71.477971v-24.861161h-44.142638a3.378524 3.378524 0 0 1-3.412651-3.395587v-14.759715a3.412651 3.412651 0 0 1 3.412651-3.395588h44.142638v-23.820302h-47.077518a3.395588 3.395588 0 0 1-3.395588-3.395588v-10.510964a303.725921 303.725921 0 0 1-17.131507 9.18003 3.412651 3.412651 0 0 1-4.385256-1.194427 92.363394 92.363394 0 0 0-11.807772-14.435513 3.344398 3.344398 0 0 1 1.074985-5.443178c34.860228-15.203359 69.652203-40.286343 89.906286-70.027595a3.378524 3.378524 0 0 1 4.214623-1.177364l19.469173 8.941145-3.753916 5.596747c23.666733 25.100047 50.933813 42.845831 82.347264 57.025395a3.361461 3.361461 0 0 1 1.040859 5.443178 71.426781 71.426781 0 0 0-11.620076 14.776778 3.378524 3.378524 0 0 1-4.572952 1.262681c-5.835633-3.156702-11.603013-6.296341-16.926748-9.299474v9.879624a3.412651 3.412651 0 0 1-3.412651 3.395588h-47.896554z m37.948677-21.755649a274.71839 274.71839 0 0 1-51.087383-43.10178c-15.015664 16.380724-32.334866 31.089249-50.694927 43.10178h101.78231zM370.119043 596.019463c1.399187 4.845964 3.361461 10.237952 5.016597 14.111311a3.412651 3.412651 0 0 1-1.160302 4.061054c-29.109911 21.090182-39.43318 29.041658-44.296207 33.734053a3.395588 3.395588 0 0 1-5.255482-0.614277 88.643605 88.643605 0 0 0-8.087983-10.766913 3.344398 3.344398 0 0 1 0.170633-4.641205c4.538826-4.436446 9.862561-11.739519 9.862561-20.800107v-62.570952h-27.676598a3.412651 3.412651 0 0 1-3.412651-3.395588v-16.858495a3.412651 3.412651 0 0 1 3.412651-3.395587h51.667533v79.361194l14.520829-10.050256a3.446777 3.446777 0 0 1 5.238419 1.825768m-27.966673-86.937279c-6.961808-7.81497-18.735453-18.701326-27.983737-27.335333a3.361461 3.361461 0 0 1-0.017063-4.897154l11.415317-10.90342a3.429714 3.429714 0 0 1 4.607078-0.136506c9.299473 8.036793 21.653269 18.377125 29.280544 25.816704 1.347997 1.313871 1.36506 3.429714 0.05119 4.777711l-12.387923 12.746251a3.344398 3.344398 0 0 1-4.965406-0.068253m95.144704-43.323602c-0.204759 18.786643-0.443645 37.692728-1.638072 56.052789 2.235286 21.567953 9.197094 79.958408 51.002066 112.105579a3.344398 3.344398 0 0 1 0.153569 5.289609 70.983137 70.983137 0 0 0-12.302606 12.951009 3.446777 3.446777 0 0 1-4.863027 0.665467c-22.813571-18.035859-36.003466-44.620409-44.006133-69.48157-7.610211 26.840499-20.76598 50.797307-42.828767 68.986736a3.446777 3.446777 0 0 1-4.880091-0.546024 76.187429 76.187429 0 0 0-13.172832-13.019263 3.344398 3.344398 0 0 1 0.034127-5.323735c47.811238-37.948677 46.719189-103.266813 47.24815-167.731787a3.412651 3.412651 0 0 1 3.412651-3.361461h18.411251a3.412651 3.412651 0 0 1 3.429714 3.412651M570.595214 590.337399c1.996401 5.170166 4.675332 10.903419 6.961808 14.896221a3.378524 3.378524 0 0 1-0.767847 4.231687c-28.888089 24.741718-38.904219 33.443978-43.647803 38.528828a3.412651 3.412651 0 0 1-5.170166-0.136507 93.318936 93.318936 0 0 0-9.691929-10.186762 3.327335 3.327335 0 0 1-0.255948-4.760648c4.743585-5.204292 10.289142-13.974805 10.289142-24.690529v-59.670199h-20.987803a3.412651 3.412651 0 0 1-3.41265-3.395587v-16.858495c0-1.876958 1.535693-3.378524 3.41265-3.378525h41.770846c1.876958 0 3.412651 1.501566 3.412651 3.378525v71.426781l12.712124-10.715724a3.412651 3.412651 0 0 1 5.374925 1.330934m-27.505965-80.589749c-6.757049-8.224488-18.274745-19.162034-27.778978-27.79604a3.361461 3.361461 0 0 1-0.051189-4.931281l11.022862-10.528027a3.378524 3.378524 0 0 1 4.504699-0.187696c10.084383 8.258615 22.267546 18.820769 29.553556 26.925815 1.228554 1.347997 1.194428 3.412651-0.10238 4.675331l-12.131974 12.063721a3.378524 3.378524 0 0 1-5.016596-0.221823m153.722855 117.804706v16.210092a3.412651 3.412651 0 0 1-3.412651 3.395587h-120.620142a3.412651 3.412651 0 0 1-3.412651-3.395587v-16.210092a3.412651 3.412651 0 0 1 3.412651-3.395587h12.012531v-90.281677a3.412651 3.412651 0 0 1 3.41265-3.395588h17.796974c1.876958 0 3.395588 1.51863 3.395588 3.395588v90.281677h19.827501v-126.797041h-51.019129a3.412651 3.412651 0 0 1-3.412651-3.395587v-16.227155a3.412651 3.412651 0 0 1 3.412651-3.395588h111.01353a3.412651 3.412651 0 0 1 3.412651 3.395588v16.227155a3.412651 3.412651 0 0 1-3.412651 3.395587h-34.536026v46.412051h30.594415c1.876958 0 3.412651 1.501566 3.41265 3.378524v16.227155a3.412651 3.412651 0 0 1-3.41265 3.395587h-30.594415v57.400787h38.716523c1.894021-0.017063 3.412651 1.51863 3.412651 3.378524M478.487769 299.852563h-103.522762c3.071386-5.426115 10.11851-16.090649 12.302606-19.29854a3.361461 3.361461 0 0 0 0.443645-2.900754 3.463841 3.463841 0 0 0-2.030527-2.201159l-14.213691-5.528495a3.51503 3.51503 0 0 0-4.453509 1.689262c-5.460241 11.278811-9.38479 17.541025-15.510498 28.222623h-52.776645a3.463841 3.463841 0 0 0-3.463841 3.446777v13.787109c0 1.894021 1.552756 3.429714 3.463841 3.429714h41.002999c-3.446777 5.511431-6.825302 10.647471-9.367726 14.589082a13.770046 13.770046 0 0 0 6.313404 20.254083l1.825768 0.767846c15.920016 7.439579 26.891688 12.353796 34.774912 15.800574-20.271146 10.289142-47.418783 16.380724-73.576751 21.141371a3.634473 3.634473 0 0 0-2.593615 1.774579 3.463841 3.463841 0 0 0-0.119443 3.139638c2.457109 5.323735 4.129307 8.59988 5.067787 9.947878a9.23122 9.23122 0 0 0 10.408585 4.88009c36.344731-8.395121 64.260215-18.360061 83.644071-30.270212 10.493901 4.19756 25.11711 10.613344 44.654535 19.520362 8.685196 4.572952 15.817636 8.019729 21.209625 10.220889a3.463841 3.463841 0 0 0 4.317003-1.518629l7.405453-12.95101a3.446777 3.446777 0 0 0 0.255949-2.781311 3.651536 3.651536 0 0 0-1.962275-2.064653 2205.459708 2205.459708 0 0 1-42.589882-18.018797 371.176965 371.176965 0 0 0-15.186296-6.705858c14.043058-12.439112 24.571086-28.495634 31.294008-47.708859h32.966207c1.911084 0 3.463841-1.535693 3.46384-3.429714v-13.787109a3.412651 3.412651 0 0 0-3.446777-3.446777z m-55.387322 20.680664c-5.596747 14.179564-15.73232 26.857562-30.918617 38.682397a715.001533 715.001533 0 0 1-37.573285-18.121176c-0.989669-0.528961-2.013464-1.109112-2.167033-1.689262-0.085316-0.341265-0.119443-1.36506 1.450376-3.839233 2.815437-4.658268 5.340799-8.258615 7.200693-10.920482 1.074985-1.569819 2.030527-2.917816 2.764248-4.095181h59.243618z" fill="#FFFFFF" p-id="11359"></path><path d="M302.036659 289.08565h14.708525c1.911084 0 3.463841-1.535693 3.463841-3.429715v-18.496567h137.666333v18.496567c0 1.894021 1.552756 3.429714 3.463841 3.429715h14.708525c1.911084 0 3.463841-1.535693 3.46384-3.429715v-34.92848a3.463841 3.463841 0 0 0-3.46384-3.429715h-70.778378a3.412651 3.412651 0 0 0 1.245618-4.470572 144.559888 144.559888 0 0 0-10.647471-17.268013l-2.422982-3.310271a84.190095 84.190095 0 0 1-3.088449-4.317004 3.51503 3.51503 0 0 0-4.709458-1.177364l-11.688329 6.825301a3.51503 3.51503 0 0 0-1.655136 2.354729 3.429714 3.429714 0 0 0 0.750784 2.781311c3.497967 4.163434 7.439579 10.408585 11.739518 18.581883h-82.739718a3.463841 3.463841 0 0 0-3.463841 3.429715v34.92848a3.412651 3.412651 0 0 0 3.446777 3.429715" fill="#FFFFFF" p-id="11360"></path><path d="M496.523629 794.823435c-199.759515 0-362.269946-161.452509-362.269946-359.915217S296.764114 74.993001 496.523629 74.993001c199.759515 0 362.287009 161.452509 362.287009 359.915217S696.283143 794.823435 496.523629 794.823435z m0-714.847963c-197.012331 0-357.304539 159.217223-357.304539 354.94981s160.275145 354.932747 357.304539 354.932746 357.304539-159.217223 357.304539-354.932746-160.292208-354.94981-357.304539-354.94981z" fill="#FFFFFF" p-id="11361"></path></svg>