<?xml version="1.0" standalone="no"?><!DOCTYPE svg PUBLIC "-//W3C//DTD SVG 1.1//EN" "http://www.w3.org/Graphics/SVG/1.1/DTD/svg11.dtd"><svg t="1753077084327" class="icon" viewBox="0 0 1024 1024" version="1.1" xmlns="http://www.w3.org/2000/svg" p-id="9964" xmlns:xlink="http://www.w3.org/1999/xlink" width="200" height="200"><path d="M782.187952 571.466024A223.429398 223.429398 0 1 0 1005.493976 794.772048a223.429398 223.429398 0 0 0-223.306024-223.306024z" fill="#047CDE" p-id="9965"></path><path d="M488.929157 787.246265a279.811084 279.811084 0 0 1 56.258313-168.651566H236.013494v-53.790844h75.011084v-61.686747h-109.062168V456.481928L363.951807 276.356627h150.885783L655.606747 419.46988l-37.012048 35.654939-127.81494-127.691566h-97.588434l-116.587952 129.665542h84.757591v107.828434h61.686747V372.711325h56.628434V456.481928h89.075662v46.141686h-88.952289v61.686747H598.361446a281.168193 281.168193 0 0 1 126.211084-55.394698 165.197108 165.197108 0 0 0 0.986988-18.01253V234.409639c-139.412048 0-220.591807-40.713253-296.096385-99.315663C353.341687 193.573012 272.038554 234.409639 132.74988 234.409639v257.357108c0 122.756627 156.807711 339.400482 296.096385 339.400482a165.567229 165.567229 0 0 0 61.686747-12.954217 283.759036 283.759036 0 0 1-1.603855-30.966747z" fill="#AFD5FD" p-id="9966"></path><path d="M524.337349 908.275663a218.124337 218.124337 0 0 1-85.621204 19.122891C261.30506 927.275181 60.946506 653.879518 60.946506 499.169157V174.573494C238.974458 174.573494 342.85494 123.373494 439.333012 49.349398c96.354699 74.024096 200.235181 125.34747 378.263133 125.347469v338.660241a288.693976 288.693976 0 0 1 41.946988 7.649157q0.986988-10.486747 0.986987-20.48V139.412048C662.022169 139.412048 546.544578 82.166747 439.333012 0 331.998072 82.166747 215.903614 139.412048 18.506024 139.412048v360.990844c0 172.722892 222.81253 476.221687 420.826988 476.221686a251.681928 251.681928 0 0 0 108.568675-27.388915A279.564337 279.564337 0 0 1 524.337349 908.275663z" fill="#047CDE" p-id="9967"></path><path d="M709.39759 879.406265a139.905542 139.905542 0 0 0 13.941205 5.30506q-2.097349 10.980241-3.577831 16.778795a13.07759 13.07759 0 0 1-6.292048 8.512772 26.772048 26.772048 0 0 1-13.324338 2.83759h-39.232771q-19.493012 0-19.493012-20.48v-39.109398h13.571085v8.882892h44.16771v-19.246265h-60.206265v-12.33735h74.024097v44.291085h-57.985542v16.408674q0 9.253012 8.636144 9.253013h34.051084a15.298313 15.298313 0 0 0 6.908916-1.357109 6.168675 6.168675 0 0 0 3.207711-4.688193q0.616867-3.701205 1.603855-15.051566zM751.097831 826.60241q10.61012 10.363373 15.421687 15.668433l-10.363373 8.636145q-5.181687-6.415422-14.434699-16.655422z m37.012049 0h13.571084q0 11.350361-0.740241 20.85012 3.701205 40.836627 26.895422 54.407711-5.30506 7.895904-9.006265 13.941205a64.894458 64.894458 0 0 1-22.57735-37.012048 78.712289 78.712289 0 0 1-24.674699 37.012048 106.718072 106.718072 0 0 0-8.636144-13.200964A58.479036 58.479036 0 0 0 783.421687 875.951807a185.060241 185.060241 0 0 0 4.441446-49.349397z m-18.629398 51.076626a72.666988 72.666988 0 0 0 3.701205 11.103615 277.590361 277.590361 0 0 0-23.070844 24.674698l-6.908915-8.389397a12.337349 12.337349 0 0 0 3.331084-8.512771v-29.979759h-9.253012v-12.33735H758.746988v32.693976z m84.510843-51.693494q5.30506 7.525783 11.103615 16.778795-4.318072 2.344096-11.103615 6.538796-4.93494-8.882892-10.116626-17.025543z m12.33735 74.024097h7.525783v-45.771567h12.337349v45.52482h9.86988v-55.641446H869.783133v-12.33735h60.453012v12.33735h-21.590362v20.603373h19.369639v12.33735h-19.369639v23.070843H931.46988v12.337349h-64.771085z m2.097349-16.161928a122.386506 122.386506 0 0 0 2.220723 12.337349q-8.636145 6.168675-19.493012 15.298313l-5.675181-9.993253a10.980241 10.980241 0 0 0 2.344097-6.908915v-29.116145h-7.279037v-12.337349h19.739759v37.012048zM760.22747 758.870361l-38.49253-37.012048a10.363373 10.363373 0 1 0-14.311326 15.051567l53.173976 50.706506 105.360964-105.237591a10.363373 10.363373 0 1 0-14.681446-14.681446z" fill="#FFFFFF" p-id="9968"></path></svg>