<?xml version="1.0" standalone="no"?><!DOCTYPE svg PUBLIC "-//W3C//DTD SVG 1.1//EN" "http://www.w3.org/Graphics/SVG/1.1/DTD/svg11.dtd"><svg t="1753076898647" class="icon" viewBox="0 0 1024 1024" version="1.1" xmlns="http://www.w3.org/2000/svg" p-id="7772" xmlns:xlink="http://www.w3.org/1999/xlink" width="200" height="200"><path d="M169.984 139.0592A31.17056 31.17056 0 0 0 138.8544 169.984v683.4176c0 17.2032 13.9264 31.1296 31.1296 31.1296h683.4176c17.2032 0 31.1296-13.9264 31.1296-31.1296V169.984c0-17.2032-13.9264-31.1296-31.1296-31.1296H169.984z m30.9248 62.0544h621.3632v621.3632H200.9088V201.1136z m0 0" fill="#1FF1FC" p-id="7773"></path><path d="M235.52 618.496V407.9616h52.4288l42.8032 140.288-1.2288 1.2288 1.2288-2.4576 44.032-139.0592h47.5136V618.496h-40.3456v-103.424L346.112 618.496h-35.6352l-33.3824-104.6528v104.6528H235.52zM564.8384 527.9744l39.3216 11.8784c-6.3488 29.2864-15.7696 50.176-28.4672 62.464-12.6976 12.288-28.4672 18.432-47.5136 18.432-18.2272 0-33.792-4.7104-46.2848-14.336-12.6976-9.4208-21.9136-22.9376-27.4432-40.3456-5.5296-17.408-8.3968-36.0448-8.3968-55.9104 0-22.1184 3.2768-41.3696 10.0352-57.7536 6.7584-16.1792 16.5888-28.4672 29.696-36.864s27.2384-12.4928 42.1888-12.4928c18.2272 0 33.5872 5.5296 45.8752 16.5888 12.288 11.0592 21.2992 29.696 26.8288 55.9104l-36.864 11.8784c-4.7104-18.2272-9.8304-30.1056-15.5648-35.6352-5.5296-5.5296-12.288-8.3968-20.2752-8.3968-10.24 0-18.2272 2.8672-23.7568 9.0112-5.5296 5.9392-9.6256 14.336-12.4928 24.9856s-4.096 21.504-4.096 32.768c0 15.1552 1.6384 27.648 4.7104 37.4784 3.072 9.8304 7.5776 17.6128 13.1072 23.1424 5.5296 5.5296 12.6976 8.3968 21.504 8.3968 8.8064 0 16.384-3.2768 23.1424-10.0352 6.7584-6.7584 11.6736-20.48 14.7456-41.1648zM627.9168 618.496V407.9616h38.0928l80.896 130.8672v-130.8672h41.5744V618.496h-39.3216l-79.6672-128.4096v128.4096h-41.5744z" fill="#1FF1FC" p-id="7774"></path></svg>