<?xml version="1.0" standalone="no"?><!DOCTYPE svg PUBLIC "-//W3C//DTD SVG 1.1//EN" "http://www.w3.org/Graphics/SVG/1.1/DTD/svg11.dtd"><svg t="1753069973953" class="icon" viewBox="0 0 1024 1024" version="1.1" xmlns="http://www.w3.org/2000/svg" p-id="11201" xmlns:xlink="http://www.w3.org/1999/xlink" width="200" height="200"><path d="M160.3 127.9h704c17.7 0 32 14.3 32 32v704c0 17.7-14.3 32-32 32h-704c-17.7 0-32-14.3-32-32v-704c0-17.6 14.3-32 32-32z" fill="#5F9BEB" p-id="11202"></path><path d="M720.1 528c-52.8 0-95.6 42.8-95.6 95.7 0 52.8 42.8 95.7 95.6 95.7s95.6-42.8 95.6-95.7c0.1-52.9-42.8-95.7-95.6-95.7z m51.9 64.9l-42.6 80.9c-0.7 3.2-2.6 6.2-5.5 8.1-2.2 1.4-4.6 2-7 2-2.4 0-4.9-0.6-7-2-3-1.9-4.9-4.9-5.5-8.1l-42.6-80.9c-3.8-5.9-2.1-13.7 3.8-17.4 5.9-3.8 13.7-2.1 17.4 3.8l34 64.5 34-64.5c3.8-5.9 11.6-7.6 17.4-3.8 5.7 3.7 7.4 11.5 3.6 17.4z m-126.8-69.5V458h23.9v51.4h0.1V458h-2.8v-0.5h31.7c4.3 1.9 9.5 0.7 12.5-3.2l0.1-0.1c2.1-2.7 2.5-6.2 1.6-9.2-0.5-3.4-2.9-6.1-6.2-7L501.4 285.2c-2-1.5-4.3-2.1-6.6-2-2.3-0.1-4.6 0.5-6.5 2L281.6 438.8c-4.5 3.4-5.4 9.7-2 14.2l0.1 0.1c1.3 1.7 3.1 2.9 5 3.6 1.1 0.5 2.3 0.8 3.5 0.8h37.5v0.5h24.8v173h-74.4c-8.4 0-15.2 6.8-15.2 15.2 0 4.3 1.8 8.3 4.8 11H246c-9.3 0-16.8 7.5-16.8 16.8s7.5 16.8 16.8 16.8h368.6c-12.4-19.4-19.5-42.4-19.5-67.2 0-41 19.7-77.4 50.1-100.2zM454.1 631h-24.4V458h24.4v173z m110.9 0h-23.9V457.9H565V631z" fill="#FFFFFF" p-id="11203"></path></svg>